Coordinates
version=1
nRows=16
nColumns=34
inDegrees=no

Units are S.I. units (second, meters, Newtons, ...)
If the header above contains a line with 'inDegrees', this indicates whether rotational values are in degrees (yes) or radians (no).

endheader
time	pelvis_tilt	pelvis_list	pelvis_rotation	pelvis_tx	pelvis_ty	pelvis_tz	hip_flexion_r	hip_adduction_r	hip_rotation_r	knee_angle_r	ankle_angle_r	subtalar_angle_r	mtp_angle_r	hip_flexion_l	hip_adduction_l	hip_rotation_l	knee_angle_l	ankle_angle_l	subtalar_angle_l	mtp_angle_l	lumbar_extension	lumbar_bending	lumbar_rotation	arm_flex_r	arm_add_r	arm_rot_r	elbow_flex_r	pro_sup_r	arm_flex_l	arm_add_l	arm_rot_l	elbow_flex_l	pro_sup_l
0.47	0.0235477	-0.0527296	-0.0827859	0.3731	0.948461	-0.199209	-0.123901	0.095063	0.000609027	0.174739	0.460443	0.197505	0	0.450784	-0.129515	-0.166651	0.220514	0.0720915	0.194176	0	-0.222749	0.0171103	0.0126767	0.0617449	-0.184053	0.0801276	0.609169	2.09	0.000764093	-0.125257	-0.245518	0.632745	2.09
0.48	0.028213	-0.0540416	-0.0836246	0.384442	0.946371	-0.198209	-0.142	0.0950961	-0.00686117	0.177145	0.476522	0.212472	0	0.440449	-0.126739	-0.147889	0.16794	0.0732414	0.172327	0	-0.231287	0.00852317	0.011373	0.0682488	-0.184792	0.0934262	0.613098	2.09	0.00339196	-0.127346	-0.253764	0.631119	2.09
0.49	0.0326021	-0.0548973	-0.0844376	0.395884	0.944212	-0.197255	-0.158919	0.0943324	-0.0166553	0.181334	0.492987	0.230539	0	0.43017	-0.124042	-0.122394	0.120109	0.0717897	0.135593	0	-0.239435	-0.000748037	0.00968407	0.074593	-0.185039	0.105992	0.61659	2.09	0.00592362	-0.129836	-0.261494	0.62879	2.09
0.5	0.0365182	-0.0553049	-0.0852684	0.407429	0.942006	-0.196297	-0.174881	0.0931918	-0.0252491	0.186476	0.508177	0.246609	0	0.42131	-0.122299	-0.098139	0.079989	0.0700102	0.0956255	0	-0.246987	-0.010799	0.0077676	0.080554	-0.184634	0.117465	0.619756	2.09	0.00831425	-0.132857	-0.26861	0.625873	2.09
0.51	0.0397896	-0.0550926	-0.0860602	0.419074	0.939782	-0.195316	-0.189933	0.091769	-0.0306714	0.192074	0.521175	0.257707	0	0.415147	-0.121246	-0.0814386	0.050193	0.0703365	0.0626665	0	-0.25376	-0.0218716	0.00565632	0.0859445	-0.183447	0.127568	0.622642	2.09	0.0105523	-0.136515	-0.275019	0.622497	2.09
0.52	0.0422231	-0.0540505	-0.0867383	0.430825	0.937566	-0.194313	-0.203939	0.089973	-0.0324341	0.197941	0.53165	0.262898	0	0.412552	-0.120134	-0.0750272	0.0324291	0.0743384	0.0424535	0	-0.259525	-0.0342047	0.00339896	0.0905107	-0.181384	0.135878	0.62535	2.09	0.0126508	-0.140872	-0.280569	0.618745	2.09
0.53	0.0441443	-0.0517869	-0.0872419	0.442717	0.935411	-0.193323	-0.217061	0.0869345	-0.0342246	0.204471	0.540744	0.267208	0	0.412179	-0.117723	-0.0721097	0.0251088	0.0778992	0.0249875	0	-0.264548	-0.0482335	0.000739771	0.0943327	-0.17855	0.143186	0.627661	2.09	0.0144293	-0.145825	-0.285905	0.614992	2.09
0.54	0.0453655	-0.0482786	-0.0875754	0.45477	0.933332	-0.192351	-0.229279	0.0826987	-0.035769	0.211322	0.548029	0.269999	0	0.414275	-0.114025	-0.0739772	0.0284432	0.0823995	0.0142761	0	-0.268578	-0.063972	-0.00217093	0.0971362	-0.174948	0.149108	0.629728	2.09	0.0159094	-0.15133	-0.290957	0.61117	2.09
0.55	0.0457365	-0.0432018	-0.0878502	0.466995	0.931333	-0.191419	-0.239746	0.0760469	-0.0437435	0.219805	0.555863	0.280747	0	0.419053	-0.109024	-0.0843732	0.0422655	0.0906609	0.0179151	0	-0.27138	-0.0817413	-0.00529648	0.0988699	-0.170665	0.153927	0.631489	2.09	0.0170656	-0.157288	-0.295985	0.607253	2.09
0.56	0.045596	-0.0373084	-0.0878972	0.479458	0.929473	-0.190515	-0.251156	0.0698416	-0.0422144	0.225479	0.557462	0.276378	0	0.424123	-0.102918	-0.0912085	0.0617539	0.0954809	0.0175155	0	-0.273279	-0.100709	-0.00832786	0.0991891	-0.165828	0.157089	0.633291	2.09	0.0180636	-0.163616	-0.300484	0.602816	2.09
0.57	0.0448312	-0.0301321	-0.0879522	0.492151	0.927749	-0.189664	-0.262133	0.0623265	-0.0406376	0.230678	0.556523	0.270643	0	0.429637	-0.0955919	-0.0992029	0.085755	0.0991551	0.0210813	0	-0.274089	-0.121339	-0.011195	0.0982525	-0.160604	0.159436	0.634872	2.09	0.0188903	-0.170217	-0.304734	0.597839	2.09
0.58	0.043399	-0.0217799	-0.0880546	0.505076	0.92617	-0.188875	-0.272528	0.0536037	-0.038974	0.235529	0.552928	0.263578	0	0.434979	-0.0870063	-0.106032	0.111405	0.0993295	0.0251279	0	-0.273758	-0.143448	-0.0136519	0.0959873	-0.155159	0.161087	0.636315	2.09	0.0196633	-0.177039	-0.308404	0.592144	2.09
0.59	0.0412953	-0.0123671	-0.0882299	0.518222	0.924751	-0.188154	-0.282088	0.0437724	-0.0373023	0.240411	0.546669	0.255426	0	0.439717	-0.077099	-0.110315	0.136297	0.0939526	0.0273537	0	-0.272312	-0.166863	-0.0155287	0.092459	-0.149646	0.162423	0.637586	2.09	0.0204482	-0.184026	-0.311372	0.585768	2.09
0.6	0.0385034	-0.00209402	-0.0884703	0.531572	0.923505	-0.187503	-0.290442	0.0330294	-0.0357684	0.245901	0.537737	0.246496	0	0.44369	-0.0659776	-0.111757	0.158866	0.0819989	0.0270476	0	-0.269789	-0.191331	-0.0167126	0.0878029	-0.144201	0.163874	0.638603	2.09	0.0212726	-0.191101	-0.313689	0.57889	2.09
0.61	0.0350021	0.00874856	-0.0887532	0.545107	0.922444	-0.186918	-0.297167	0.0216762	-0.034501	0.252686	0.526057	0.237035	0	0.446989	-0.0540123	-0.111033	0.178611	0.0640097	0.0249006	0	-0.266214	-0.2165	-0.0171142	0.0821802	-0.138928	0.165804	0.639259	2.09	0.0221437	-0.198156	-0.315561	0.571728	2.09
0.62	0.030779	0.0198042	-0.089059	0.558809	0.921575	-0.186398	-0.301831	0.0100858	-0.0335511	0.261496	0.511477	0.227158	0	0.449935	-0.0418024	-0.10941	0.196126	0.0422401	0.0223647	0	-0.261596	-0.241935	-0.0166314	0.0757428	-0.133913	0.16842	0.639459	2.09	0.0230786	-0.20505	-0.317278	0.564443	2.09
